<?xml version="1.0" encoding="utf-8"?>
<!-- Generator: Adobe Illustrator 24.0.2, SVG Export Plug-In . SVG Version: 6.00 Build 0)  -->
<svg version="1.1" id="Layer_1" xmlns="http://www.w3.org/2000/svg" xmlns:xlink="http://www.w3.org/1999/xlink" x="0px" y="0px"
	 viewBox="0 0 298.2 291" style="enable-background:new 0 0 298.2 291;" xml:space="preserve">
<style type="text/css">
	.st0{fill:none;}
	.st1{fill:none;stroke:#000000;stroke-width:5;}
</style>
<g id="Group_700" transform="translate(-16059.232 -14400)">
	<path id="Rectangle_2987" d="M16109.7,14400L16109.7,14400c1.4,0,2.5,1.1,2.5,2.5v284c0,1.4-1.1,2.5-2.5,2.5l0,0
		c-1.4,0-2.5-1.1-2.5-2.5v-284C16107.2,14401.1,16108.4,14400,16109.7,14400z"/>
	<g id="Group_697">
		
			<rect id="Rectangle_2974" x="16099.9" y="14421.3" transform="matrix(0.7071 -0.7071 0.7071 0.7071 -5474.5933 15630.8438)" width="61.7" height="5"/>
		<path id="Rectangle_2966" d="M16357.5,14688.5L16357.5,14688.5c0,1.4-1.1,2.5-2.5,2.5h-293.2c-1.4,0-2.5-1.1-2.5-2.5l0,0
			c0-1.4,1.1-2.5,2.5-2.5h293.2C16356.3,14686,16357.5,14687.1,16357.5,14688.5z"/>
		<path id="Rectangle_2988" d="M16109.7,14400h182c1.4,0,2.5,1.1,2.5,2.5l0,0c0,1.4-1.1,2.5-2.5,2.5h-182c-1.4,0-2.5-1.1-2.5-2.5
			l0,0C16107.2,14401.1,16108.4,14400,16109.7,14400z"/>
		<path id="Rectangle_2989" d="M16291.7,14401L16291.7,14401c1.4,0,2.5,1.1,2.5,2.5v44c0,1.4-1.1,2.5-2.5,2.5l0,0
			c-1.4,0-2.5-1.1-2.5-2.5v-44C16289.2,14402.1,16290.4,14401,16291.7,14401z"/>
		<g id="Group_696">
			<path id="Rectangle_2970" d="M16291,14500L16291,14500c1,1,1,2.6,0,3.5l-36.1,36.1c-1,1-2.6,1-3.5,0l0,0c-1-1-1-2.6,0-3.5
				l36.1-36.1C16288.4,14499,16290,14499,16291,14500z"/>
			<path id="Rectangle_2967" d="M16293,14567L16293,14567c1,1,1,2.6,0,3.5l-36.1,36.1c-1,1-2.6,1-3.5,0l0,0c-1-1-1-2.6,0-3.5
				l36.1-36.1C16290.4,14566,16292,14566,16293,14567z"/>
			<path id="Rectangle_2971" d="M16292.5,14500L16292.5,14500c1-1,2.6-1,3.5,0l36.1,36.1c1,1,1,2.6,0,3.5l0,0c-1,1-2.6,1-3.5,0
				l-36.1-36.1C16291.5,14502.6,16291.5,14501,16292.5,14500z"/>
			<path id="Path_355" d="M16294,14567l36.1,36.1c1,1,1,2.6,0,3.5c-1,1-2.6,1-3.5,0l-36.1-36.1
				C16289.5,14569.6,16293.1,14566,16294,14567z"/>
			<g id="Ellipse_32" transform="translate(16263.732 14445.247)">
				<circle class="st0" cx="27.5" cy="27.5" r="27.5"/>
				<circle class="st1" cx="27.5" cy="27.5" r="25"/>
			</g>
			<path id="Rectangle_2990" d="M16291.7,14498L16291.7,14498c1.4,0,2.5,1.1,2.5,2.5v68c0,1.4-1.1,2.5-2.5,2.5l0,0
				c-1.4,0-2.5-1.1-2.5-2.5v-68C16289.2,14499.1,16290.4,14498,16291.7,14498z"/>
		</g>
	</g>
</g>
</svg>
